<svg id="logo_black" data-name="logo black" xmlns="http://www.w3.org/2000/svg" xmlns:xlink="http://www.w3.org/1999/xlink" width="6500" height="1024" viewBox="0 0 6500 1024">
  <defs>
    <style>
      .cls-1, .cls-2, .cls-3 {
        fill-rule: evenodd;
      }

      .cls-1 {
        filter: url(#filter);
      }

      .cls-2 {
        filter: url(#filter-2);
      }
    </style>
    <filter id="filter" x="545.156" y="149" width="587.904" height="716.562" filterUnits="userSpaceOnUse">
      <feFlood result="flood"/>
      <feComposite result="composite" operator="in" in2="SourceGraphic"/>
      <feBlend result="blend" in2="SourceGraphic"/>
    </filter>
    <filter id="filter-2" x="109" y="321.625" width="636.406" height="543.937" filterUnits="userSpaceOnUse">
      <feFlood result="flood"/>
      <feComposite result="composite" operator="in" in2="SourceGraphic"/>
      <feBlend result="blend" in2="SourceGraphic"/>
    </filter>
  </defs>
  <path class="cls-1" d="M714.476,149.014l418.584,716.54H797.021L545.166,434.706Z"/>
  <path id="Triangle_1" data-name="Triangle 1" class="cls-2" d="M426.52,321.639L745.407,865.578H109.012Z"/>
  <path id="BLACKRIDGE" class="cls-3" d="M1428.48,865.816q60.345,0,106.68-20.387,46.32-20.386,72.68-59.887,26.325-39.5,26.35-96.414,0-50.112-21.25-84.522-21.27-34.4-60.36-55.639,27.2-22.08,42.5-48.42,15.315-26.319,15.31-53.516,0-60.3-27.21-99.387-27.21-39.062-74.8-57.764-47.61-18.673-109.65-18.688H1184.52V865.816h243.96Zm-90.96-244.645h72.26q28.05,0,44.62,14.016t16.58,37.8q0,23.792-16.58,39.075t-44.62,15.291h-72.26V621.171Zm0-228.506h50.16q27.195,0,44.2,13.592t17,38.226q0,24.648-17,38.226-17.025,13.6-44.2,13.591h-50.16V392.665Zm762.49,473.151V721.408H1855.2V271.192H1697.94V865.816h402.07Zm181.06,0,34.85-95.14h221.86l34.85,95.14h166.61L2511.43,271.192H2342.27L2114.46,865.816h166.61Zm146.2-398.4,59.51,164.8H2366.92Zm734.44,384.807q56.1-23.772,96.05-66.683a288.212,288.212,0,0,0,60.35-98.962l-149.6-47.57a212.96,212.96,0,0,1-30.18,48.844,121.558,121.558,0,0,1-41.65,32.279Q3072.455,731.6,3039.3,731.6q-42.51,0-75.23-20.812t-51.43-57.763q-18.7-36.952-18.7-84.522,0-48.418,18.28-84.946t50.58-57.339q32.295-20.805,73.95-20.812,31.44,0,56.53,11.043a127.448,127.448,0,0,1,43.77,31.855,174.914,174.914,0,0,1,30.61,48.844l149.6-47.57a294.847,294.847,0,0,0-61.2-98.537q-39.96-42.466-95.2-66.258Q3105.585,261.012,3036.75,261q-89.25,0-157.68,39.5Q2810.625,340,2771.54,409.23q-39.105,69.244-39.1,159.274,0,90.049,39.1,159.275,39.09,69.245,107.53,108.731,68.415,39.5,157.68,39.5Q3105.6,876.01,3161.71,852.225Zm368.91,13.591V689.977l34.85-38.225,163.21,214.064h195.51L3669.18,539.623l247.36-268.431H3709.98L3530.62,469.117V271.192H3373.37V865.816h157.25Zm601.83,0V677.236h55.25l107.11,188.58h180.21L4344.11,649.2q49.29-25.483,78.2-71.355,28.89-45.87,28.9-104.484,0-59.448-29.32-104.908-29.325-45.434-81.18-71.355-51.855-25.9-119.01-25.909H3975.19V865.816h157.26Zm0-451.064h80.75q32.295,0,52.28,16.564,19.965,16.565,19.98,42.048a52.689,52.689,0,0,1-9.35,30.581,62.966,62.966,0,0,1-25.51,21.237q-16.155,7.644-37.4,7.645h-80.75V414.752Zm555.07,451.064V271.192H4530.27V865.816h157.25Zm292.42,0q97.74,0,172.98-38.226,75.225-38.225,117.73-105.333,42.495-67.093,42.5-153.753,0-87.482-42.5-154.177-42.51-66.677-117.73-104.909t-172.98-38.226H4781.03V865.816h198.91Zm-41.65-445.968h41.65q37.4,0,68.85,11.043,31.44,11.05,54.4,30.581a137.34,137.34,0,0,1,35.7,46.72q12.765,27.2,12.76,60.312t-12.76,60.312a137.085,137.085,0,0,1-35.7,46.721q-22.95,19.551-54.4,30.58-31.455,11.051-68.85,11.043h-41.65V419.848Zm858.96,428.13q59.925-28.033,95.63-84.947t38.25-142.71V532.827H5648.92V651.752h130.9a87.174,87.174,0,0,1-19.97,42.9q-15.735,18.277-40.38,28.457-24.66,10.194-55.25,10.194-47.625,0-82.88-21.237a139.992,139.992,0,0,1-53.98-58.612q-18.7-37.371-18.7-84.947,0-48.418,19.55-84.946t53.55-57.339q33.99-20.805,78.21-20.812a124.81,124.81,0,0,1,43.78,8.07,147.128,147.128,0,0,1,39.95,22.511,133.985,133.985,0,0,1,30.17,33.129l130.91-77.3a293.509,293.509,0,0,0-57.8-67.532q-34.02-29.307-80.33-46.3Q5720.3,261.005,5659.97,261q-91.8,0-162.36,39.5T5387.11,409.23q-39.975,69.244-39.96,159.274,0,90.049,39.96,159.275,39.945,69.245,110.5,108.731t162.36,39.5Q5737.31,876.01,5797.25,847.978ZM6391,865.816V721.408H6143.64V638.16h195.51V498H6143.64V415.6h241.41V271.192H5986.38V865.816H6391Z"/>
</svg>
