<svg id="logo_white" data-name="logo white" xmlns="http://www.w3.org/2000/svg" xmlns:xlink="http://www.w3.org/1999/xlink" width="6143" height="1024" viewBox="0 0 6143 1024">
  <defs>
    <style>
      .cls-1, .cls-2, .cls-3 {
        fill-rule: evenodd;
      }

      .cls-1 {
        filter: url(#filter);
      }

      .cls-2 {
        filter: url(#filter-2);
      }

      .cls-3 {
        fill: #003;
        filter: url(#filter-3);
      }
    </style>
    <filter id="filter" x="871.156" y="102.969" width="587.844" height="717" filterUnits="userSpaceOnUse">
      <feFlood result="flood" flood-color="#fff"/>
      <feComposite result="composite" operator="in" in2="SourceGraphic"/>
      <feBlend result="blend" in2="SourceGraphic"/>
    </filter>
    <filter id="filter-2" x="435" y="275.719" width="636.38" height="544.281" filterUnits="userSpaceOnUse">
      <feFlood result="flood" flood-color="#fff"/>
      <feComposite result="composite" operator="in" in2="SourceGraphic"/>
      <feBlend result="blend" in2="SourceGraphic"/>
    </filter>
    <filter id="filter-3" x="1583.41" y="206.781" width="4125.12" height="613.157" filterUnits="userSpaceOnUse">
      <feFlood result="flood" flood-color="#fff"/>
      <feComposite result="composite" operator="in" in2="SourceGraphic"/>
      <feBlend result="blend" in2="SourceGraphic"/>
    </filter>
  </defs>
  <path class="cls-1" d="M1040.45,102.983l418.56,716.993H1122.99L871.147,388.855Z"/>
  <path id="Triangle_1" data-name="Triangle 1" class="cls-2" d="M752.505,275.717L1071.38,820H435.012Z"/>
  <path id="MERIDIAN" class="cls-3" d="M2102.21,206.789L1931.89,631.268,1759.83,206.789H1583.4V819.925h149.35V451.345l138,368.58h120.53l137.13-367.707V819.925h149.35V206.789H2102.21Zm649.81,119.658V206.789H2376.46V819.925h375.56V700.267H2525.81V565.762h200.01V450.471H2525.81V326.447h226.21Zm569.47,493.478L3180,577.116q67.245-20.082,101.75-68.126,34.485-48.024,34.5-109.177,0-54.144-25.33-98.259-25.335-44.094-76.42-69.436-51.105-25.322-123.59-25.329H2840.24V819.925h149.35V588.47h35.81l127.52,231.455h168.57Zm-331.9-489.111h92.58q41.055,0,61.58,20.088,20.505,20.1,20.53,55.025,0,36.684-20.53,56.772t-61.58,20.088h-92.58V330.814Zm411.38-124.025V819.925h149.35V206.789H3400.97Zm478.63,0H3649.89V819.925H3879.6q96.075,0,169.01-38.43,72.915-38.424,112.67-108.3,39.735-69.865,39.74-159.834,0-90.828-39.74-160.271-39.765-69.437-112.24-107.867-72.51-38.422-169.44-38.43h0Zm-9.61,483.871h-70.74V334.307h70.74q84.705,0,131.89,47.164,47.16,47.164,47.16,131.886t-47.16,131.012q-47.16,46.3-131.89,46.291h0Zm406.14-483.871V819.925h149.35V206.789H4276.13Zm667.29,613.136H5101.5L4879.66,206.789H4706.72L4484.88,819.925h156.34l36.68-108.3h228.83ZM4717.2,596.331l75.12-224.467,75.98,224.467H4717.2Zm991.33-389.542H5559.17V586.723L5309.38,206.789H5160.02V819.925h149.36V441.737l249.79,378.188h149.36V206.789Z"/>
</svg>
